<svg xmlns="http://www.w3.org/2000/svg" width="90" height="90" viewBox="0 0 90 90">
  <path id="Path_3" data-name="Path 3" d="M43.257,66.775c1.639.848,41.329,22.164,42.579,22.852a2.766,2.766,0,0,0,3.793-3.762c-.686-1.245-22.185-41.456-22.91-42.686a2.871,2.871,0,0,0-3.853-1.028c-1.313.81-2.829,1.72-3.677,2.159a2.43,2.43,0,0,0-1.153,3.685c1.689,3.238,7,13.072,7.607,14.1,1.271,2.156-1.566,4.619-3.491,3.544-.814-.457-13.415-7.182-14.305-7.709s-2.469-.522-3.549,1.256q-1.128,1.832-2.2,3.7a2.587,2.587,0,0,0,1.158,3.89ZM1.358,44.289C-.756,43.126-.37,40.1,2.3,39.333c2.259-.654,20.6-6.894,26.154-8.786a3.376,3.376,0,0,0,2.12-2.128L39.485,1.877c.833-2.483,3.851-2.491,5.083-.088C45,2.645,61.615,33.2,62.193,34.5a2.749,2.749,0,0,1-1.1,3.56c-1.313.828-3.446,2.065-4.192,2.535a2.132,2.132,0,0,1-3.252-1.059c-.615-1.316-5.353-9.808-7.287-13.412-.967-1.8-3.877-2.491-4.854.42L38.29,36.115a3.505,3.505,0,0,1-2.133,2.146l-9.674,3.254a2.6,2.6,0,0,0-.26,4.863c.538.259,12.151,6.585,13.349,7.162a2.57,2.57,0,0,1,1.164,3.433c-.956,1.614-2.18,3.661-2.627,4.328a2.705,2.705,0,0,1-3.554.856c-1.271-.688-32.443-17.455-33.2-17.87Z" transform="translate(0 -0.001)" fill="#05cb63" fill-rule="evenodd"/>
</svg>
